# xmcd
#
# Track frame offsets: 
#        150
#        8455
#        32773
#        47932
#        58325
#        63735
#        75830
#        99351
#        134299
#        147135
#        159338
#        166650
#        185030
#        198218
#        214758
#        228173
#        239604
#
# Disc length: 3417 seconds
#
# Revision: 6
# Processed by: cddbd v1.5.2PL0 Copyright (c) Steve Scherf et al.
# Submitted via: ExactAudioCopyFreeDBPlugin 1.0
#
DISCID=dd0d5711
DTITLE=Bob Dylan - The Rolling Thunder Revue [CD 01) - [Studio Instrum
DTITLE=ent Rentals Rehearsals]
DYEAR=2019
DGENRE=Rock
TTITLE0=Rake And Ramblin' Boy [incomplete]
TTITLE1=Romance In Durango [incomplete]
TTITLE2=Rita May
TTITLE3=I Want You [incomplete]
TTITLE4=Love Minus Zero-No Limit [incomplete]
TTITLE5=She Belongs To Me [incomplete]
TTITLE6=Joey [incomplete]
TTITLE7=Isis
TTITLE8=Hollywood Angel [incomplete]
TTITLE9=People Get Ready
TTITLE10=What Will You Do When Jesus Comes?
TTITLE11=Spanish Is The Loving Tongue
TTITLE12=The Ballad Of Ira Hayes
TTITLE13=One More Cup Of Coffee (Valley Below)
TTITLE14=Tonight I'll Be Staying Here With You
TTITLE15=This Land Is Your Land
TTITLE16=Dark As A Dungeon
EXTD=
EXTT0=
EXTT1=
EXTT2=
EXTT3=
EXTT4=
EXTT5=
EXTT6=
EXTT7=
EXTT8=
EXTT9=
EXTT10=
EXTT11=
EXTT12=
EXTT13=
EXTT14=
EXTT15=
EXTT16=
PLAYORDER=
